<svg width="1189" height="979" viewBox="0 0 1189 979" fill="none" xmlns="http://www.w3.org/2000/svg">
<g filter="url(#filter0_d_8_5652)">
<path d="M701.421 160.909C701.421 210.098 661.514 377.446 612.286 377.446C563.059 377.446 523.152 210.098 523.152 160.909C523.152 144.792 547.633 149.871 555.125 136.829C570.5 110.065 579.188 71.8423 612.286 71.8423C645.385 71.8423 653.461 110.677 668.836 137.44C676.328 150.483 701.421 144.792 701.421 160.909Z" fill="url(#paint0_linear_8_5652)"/>
<path d="M612.287 72.3423C628.584 72.3424 638.744 81.8795 646.782 94.8677C650.803 101.366 654.277 108.703 657.714 116.11C660.933 123.044 664.12 130.042 667.684 136.421L668.402 137.689C670.347 141.075 673.424 143.223 676.88 144.798C680.325 146.368 684.214 147.397 687.791 148.5C691.399 149.612 694.687 150.796 697.075 152.669C699.428 154.515 700.921 157.039 700.921 160.909C700.92 185.429 690.961 239.506 674.839 287.464C666.78 311.44 657.193 333.851 646.562 350.257C641.247 358.461 635.682 365.142 629.936 369.769C624.191 374.394 618.291 376.946 612.287 376.946C606.282 376.946 600.381 374.395 594.636 369.769C588.89 365.142 583.326 358.461 578.01 350.257C567.379 333.851 557.792 311.44 549.733 287.464C533.612 239.506 523.652 185.429 523.652 160.909C523.652 157.033 525.112 154.468 527.413 152.566C529.746 150.637 532.958 149.378 536.489 148.19C539.988 147.012 543.8 145.905 547.185 144.278C550.477 142.695 553.427 140.595 555.374 137.391L555.559 137.078C559.415 130.366 562.851 122.936 566.34 115.598C569.835 108.25 573.384 100.989 577.481 94.5679C585.67 81.7334 595.983 72.3423 612.287 72.3423Z" stroke="#F7F0E6" stroke-opacity="0.8"/>
</g>
<g filter="url(#filter1_d_8_5652)">
<path d="M524.864 810.091C524.864 760.902 564.771 593.554 613.998 593.554C663.226 593.554 703.133 760.902 703.133 810.091C703.133 826.208 678.652 821.129 671.159 834.171C655.785 860.935 647.097 899.158 613.998 899.158C580.9 899.158 572.824 860.323 557.449 833.56C549.956 820.517 524.864 826.208 524.864 810.091Z" fill="url(#paint1_linear_8_5652)"/>
<path d="M613.998 898.658C597.701 898.658 587.54 889.121 579.503 876.132C575.482 869.634 572.008 862.297 568.57 854.89C565.352 847.956 562.164 840.958 558.601 834.579L557.883 833.311C555.938 829.925 552.861 827.777 549.404 826.202C545.96 824.632 542.07 823.603 538.494 822.5C534.886 821.388 531.598 820.203 529.21 818.331C526.857 816.485 525.364 813.961 525.364 810.091C525.364 785.571 535.324 731.494 551.445 683.536C559.505 659.56 569.092 637.149 579.723 620.743C585.038 612.539 590.602 605.858 596.349 601.231C602.093 596.606 607.993 594.054 613.998 594.054C620.003 594.054 625.904 596.605 631.648 601.231C637.395 605.858 642.959 612.539 648.274 620.743C658.905 637.149 668.492 659.56 676.552 683.536C692.673 731.494 702.633 785.571 702.633 810.091C702.633 813.967 701.173 816.532 698.872 818.434C696.539 820.363 693.326 821.622 689.796 822.81C686.297 823.988 682.485 825.095 679.1 826.722C675.808 828.305 672.858 830.405 670.911 833.609L670.726 833.922C666.87 840.634 663.434 848.064 659.944 855.402C656.45 862.75 652.9 870.011 648.804 876.432C640.615 889.267 630.301 898.658 613.998 898.658Z" stroke="#F7F0E6" stroke-opacity="0.8"/>
</g>
<g filter="url(#filter2_d_8_5652)">
<path d="M321.204 381.449C371.215 381.449 541.356 422.022 541.356 472.071C541.356 522.121 371.215 562.694 321.204 562.694C271.193 562.694 230.651 535.872 230.651 485.822C230.651 483.614 263.107 476.156 263.263 468.397C263.438 459.622 231.333 450.462 231.7 448.067C238.358 404.587 275.895 381.449 321.204 381.449Z" fill="url(#paint2_linear_8_5652)"/>
<path d="M231.151 485.894C231.178 485.863 231.228 485.813 231.315 485.749C231.514 485.599 231.829 485.418 232.264 485.208C233.128 484.789 234.377 484.293 235.899 483.728C238.916 482.607 243.017 481.211 247.077 479.659C251.149 478.102 255.254 476.36 258.358 474.512C259.908 473.589 261.233 472.625 262.18 471.627C263.064 470.696 263.661 469.689 263.751 468.622L263.763 468.407C263.788 467.152 263.235 465.939 262.335 464.793C261.434 463.647 260.153 462.528 258.644 461.449C255.624 459.29 251.604 457.232 247.619 455.386C243.648 453.547 239.631 451.882 236.707 450.564C235.23 449.898 234.029 449.319 233.212 448.837C232.801 448.595 232.512 448.391 232.337 448.228C232.264 448.16 232.225 448.11 232.204 448.08C238.839 404.961 276.077 381.949 321.204 381.949C346.135 381.949 401.115 392.075 449.875 408.465C474.251 416.659 497.037 426.407 513.719 437.216C522.06 442.621 528.854 448.278 533.559 454.122C538.262 459.963 540.857 465.964 540.857 472.072C540.856 478.179 538.262 484.18 533.559 490.021C528.854 495.864 522.06 501.522 513.719 506.926C497.037 517.735 474.251 527.483 449.875 535.677C401.115 552.068 346.135 562.194 321.204 562.194C296.282 562.194 273.762 555.51 257.484 542.634C241.234 529.781 231.17 510.733 231.151 485.894Z" stroke="#F7F0E6" stroke-opacity="0.8"/>
</g>
<g filter="url(#filter3_d_8_5652)">
<path d="M675.731 356.554C744.26 356.554 977.398 412.15 977.398 480.731C977.398 549.311 744.26 604.907 675.731 604.907C607.203 604.907 551.649 549.311 551.649 480.731C551.649 412.15 607.203 356.554 675.731 356.554Z" fill="url(#paint3_linear_8_5652)"/>
</g>
<g filter="url(#filter4_d_8_5652)">
<path d="M892.117 367.034C845.006 414.145 646.513 536.198 599.367 489.052C552.22 441.905 674.274 243.412 721.384 196.301C768.495 149.191 844.905 149.22 892.052 196.366C939.198 243.513 939.228 319.924 892.117 367.034Z" fill="url(#paint4_linear_8_5652)"/>
<path d="M891.698 196.72C938.65 243.672 938.679 319.765 891.764 366.681C868.262 390.183 806.913 432.445 745.533 462.942C714.847 478.188 684.185 490.476 658.27 496.012C645.312 498.78 633.563 499.855 623.603 498.78C613.645 497.705 605.509 494.486 599.721 488.698C593.932 482.91 590.713 474.772 589.638 464.814C588.563 454.855 589.638 443.107 592.406 430.149C597.942 404.233 610.23 373.572 625.477 342.885C655.973 281.505 698.236 220.157 721.738 196.655C768.653 149.74 844.747 149.769 891.698 196.72Z" stroke="#F7F0E6" stroke-opacity="0.8"/>
</g>
<g filter="url(#filter5_d_8_5652)">
<path d="M720.474 768.159C670.617 718.302 541.448 508.238 591.343 458.343C641.238 408.448 851.303 537.616 901.16 587.473C921.877 608.191 954.748 655.03 958.239 682.009C960.718 701.171 905.045 680.947 898.836 699.43C892.749 717.55 915.527 753.654 901.091 768.09C886.498 782.683 850.634 759.91 832.294 765.972C813.856 772.066 833.699 827.716 814.615 825.187C787.777 821.63 741.09 788.776 720.474 768.159Z" fill="url(#paint5_linear_8_5652)"/>
<path d="M900.737 767.737C897.219 771.255 892.393 772.551 886.762 772.563C881.126 772.575 874.753 771.3 868.213 769.744C861.696 768.194 855.003 766.363 848.813 765.305C842.819 764.281 837.205 763.962 832.582 765.357L832.137 765.498C827.245 767.115 824.98 771.999 823.944 778.067C822.903 784.158 823.062 791.659 823.197 798.823C823.333 806.025 823.443 812.865 822.347 817.75C821.8 820.189 820.967 822.069 819.748 823.261C818.629 824.356 817.139 824.918 815.097 824.738L814.681 824.691C801.379 822.928 783.078 813.88 765.48 802.649C747.901 791.429 731.104 778.083 720.827 767.805C695.952 742.93 651.224 678.003 618.949 613.044C602.814 580.567 589.808 548.115 583.948 520.685C581.018 506.97 579.881 494.534 581.019 483.989C582.157 473.447 585.565 464.829 591.697 458.697C597.828 452.565 606.447 449.156 616.989 448.018C627.534 446.88 639.971 448.018 653.686 450.948C681.116 456.807 713.567 469.814 746.043 485.949C811.003 518.224 875.93 562.951 900.806 587.827C911.133 598.154 924.508 615.014 935.737 632.662C946.802 650.052 955.73 668.128 957.657 681.443L957.743 682.074C958.036 684.341 957.47 685.96 956.297 687.15C955.099 688.366 953.215 689.191 950.769 689.727C945.874 690.798 939.023 690.65 931.807 690.474C924.631 690.299 917.115 690.1 911.004 691.112C905.106 692.089 900.317 694.228 898.526 698.819L898.362 699.271C896.799 703.924 897.101 709.681 898.158 715.856C899.215 722.036 901.048 728.734 902.607 735.258C904.172 741.804 905.462 748.187 905.472 753.821C905.482 759.451 904.214 764.26 900.737 767.737Z" stroke="#F7F0E6" stroke-opacity="0.8"/>
</g>
<g filter="url(#filter6_d_8_5652)">
<path d="M250.111 658.895C324.37 584.636 617.488 372.482 667.424 422.418C717.361 472.355 505.207 765.472 430.947 839.732C356.688 913.991 444.659 745.057 394.722 695.12C344.786 645.184 175.851 733.155 250.111 658.895Z" fill="url(#paint6_linear_8_5652)"/>
<path d="M234.573 688.411C233.139 687.72 232.323 686.753 232.094 685.449C231.859 684.105 232.228 682.309 233.404 679.948C235.754 675.228 241.184 668.53 250.465 659.249C287.559 622.155 379.37 550.574 468.156 494.506C512.548 466.473 556.159 442.334 591.778 428.323C609.59 421.317 625.376 416.856 638.246 415.695C651.131 414.533 660.985 416.686 667.071 422.771C673.156 428.857 675.31 438.712 674.148 451.596C672.987 464.467 668.526 480.253 661.519 498.065C647.509 533.684 623.37 577.295 595.337 621.687C539.269 710.473 467.688 802.284 430.594 839.378C421.313 848.659 414.615 854.089 409.895 856.439C407.534 857.615 405.738 857.984 404.394 857.748C403.09 857.52 402.123 856.704 401.432 855.269C400.731 853.814 400.332 851.752 400.197 849.129C400.063 846.515 400.193 843.385 400.517 839.822C401.166 832.693 402.589 823.884 404.207 814.081C407.44 794.495 411.442 770.975 411.507 749.227C411.572 727.498 407.708 707.399 395.076 694.767C382.443 682.134 362.344 678.271 340.616 678.336C318.868 678.401 295.348 682.403 275.762 685.636C265.959 687.253 257.15 688.677 250.021 689.326C246.458 689.65 243.328 689.78 240.714 689.646C238.091 689.511 236.029 689.112 234.573 688.411Z" stroke="#F7F0E6" stroke-opacity="0.8"/>
</g>
<g filter="url(#filter7_d_8_5652)">
<path d="M502.697 185.899C551.046 234.248 676.308 437.96 627.922 486.346C579.536 534.732 375.825 409.47 327.476 361.121C279.127 312.772 265.863 247.646 314.249 199.26C316.384 197.125 354.971 221.294 362.623 213.942C371.276 205.629 349.094 165.735 351.764 163.774C400.236 128.175 458.894 142.096 502.697 185.899Z" fill="url(#paint7_linear_8_5652)"/>
<path d="M314.616 199.632C314.69 199.622 314.811 199.623 314.988 199.649C315.343 199.7 315.835 199.834 316.463 200.052C317.712 200.485 319.406 201.217 321.424 202.142C325.435 203.98 330.735 206.588 336.163 209.013C341.603 211.443 347.243 213.724 352.014 214.934C354.398 215.539 356.592 215.883 358.448 215.834C360.183 215.789 361.685 215.398 362.76 214.491L362.97 214.303C364.165 213.154 364.793 211.494 365.028 209.54C365.262 207.584 365.109 205.283 364.694 202.79C363.865 197.802 361.973 191.938 359.906 186.304C357.844 180.684 355.575 175.207 354.019 171.094C353.234 169.022 352.629 167.292 352.303 166.026C352.139 165.391 352.052 164.9 352.04 164.553C352.034 164.379 352.048 164.266 352.066 164.199C352.071 164.181 352.076 164.17 352.08 164.162C400.286 128.774 458.659 142.568 502.344 186.253C526.465 210.374 569.84 273.337 601.138 336.331C616.785 367.825 629.397 399.293 635.079 425.892C637.92 439.191 639.023 451.25 637.919 461.473C636.816 471.695 633.512 480.049 627.569 485.992C621.626 491.935 613.271 495.24 603.049 496.343C592.826 497.446 580.768 496.343 567.469 493.502C540.87 487.82 509.402 475.208 477.908 459.561C414.914 428.263 351.951 384.889 327.829 360.767C303.714 336.652 288.379 308.382 285.083 280.147C281.791 251.938 290.509 223.721 314.576 199.64C314.584 199.638 314.597 199.634 314.616 199.632Z" stroke="#F7F0E6" stroke-opacity="0.8"/>
</g>
<g filter="url(#filter8_d_8_5652)">
<rect x="732.059" y="527.817" width="55.9957" height="247.154" rx="27.9979" transform="rotate(135 732.059 527.817)" fill="url(#paint8_linear_8_5652)"/>
<rect x="731.352" y="527.817" width="54.9957" height="246.154" rx="27.4979" transform="rotate(135 731.352 527.817)" stroke="#F7F0E6" stroke-opacity="0.8"/>
<rect x="692.416" y="567.465" width="55.9957" height="247.154" rx="27.9979" transform="rotate(135 692.416 567.465)" fill="url(#paint9_linear_8_5652)"/>
<rect x="691.709" y="567.465" width="54.9957" height="246.154" rx="27.4979" transform="rotate(135 691.709 567.465)" stroke="#F7F0E6" stroke-opacity="0.8"/>
<rect x="557.342" y="607.062" width="55.9957" height="247.154" rx="27.9979" transform="rotate(-135 557.342 607.062)" fill="url(#paint10_linear_8_5652)"/>
<rect x="557.342" y="606.355" width="54.9957" height="246.154" rx="27.4979" transform="rotate(-135 557.342 606.355)" stroke="#F7F0E6" stroke-opacity="0.8"/>
<rect x="517.696" y="567.412" width="55.9957" height="247.154" rx="27.9979" transform="rotate(-135 517.696 567.412)" fill="url(#paint11_linear_8_5652)"/>
<rect x="517.696" y="566.705" width="54.9957" height="246.154" rx="27.4979" transform="rotate(-135 517.696 566.705)" stroke="#F7F0E6" stroke-opacity="0.8"/>
</g>
<g filter="url(#filter9_d_8_5652)">
<rect x="606.02" width="13.0579" height="41.3501" rx="6.52896" fill="url(#paint12_linear_8_5652)"/>
<rect x="603.847" y="43.5325" width="13.0579" height="41.3501" rx="6.52896" transform="rotate(90 603.847 43.5325)" fill="url(#paint13_linear_8_5652)"/>
<rect x="662.614" y="43.5325" width="13.0579" height="41.3501" rx="6.52896" transform="rotate(90 662.614 43.5325)" fill="url(#paint14_linear_8_5652)"/>
</g>
<g filter="url(#filter10_d_8_5652)">
<rect x="620.267" y="971" width="13.0579" height="41.3501" rx="6.52896" transform="rotate(-180 620.267 971)" fill="url(#paint15_linear_8_5652)"/>
<rect x="622.44" y="927.468" width="13.0579" height="41.3501" rx="6.52896" transform="rotate(-90 622.44 927.468)" fill="url(#paint16_linear_8_5652)"/>
<rect x="563.673" y="927.468" width="13.0579" height="41.3501" rx="6.52896" transform="rotate(-90 563.673 927.468)" fill="url(#paint17_linear_8_5652)"/>
</g>
<g filter="url(#filter11_d_8_5652)">
<rect x="720.28" y="382.867" width="13.0579" height="41.3501" rx="6.52896" transform="rotate(-135 720.28 382.867)" fill="url(#paint18_linear_8_5652)"/>
</g>
<g filter="url(#filter12_d_8_5652)">
<rect x="498.634" y="575.509" width="13.0579" height="41.3501" rx="6.52896" transform="rotate(45 498.634 575.509)" fill="url(#paint19_linear_8_5652)"/>
</g>
<g filter="url(#filter13_d_8_5652)">
<rect x="732.987" y="592.259" width="13.0579" height="41.3501" rx="6.52896" transform="rotate(135 732.987 592.259)" fill="url(#paint20_linear_8_5652)"/>
</g>
<g filter="url(#filter14_d_8_5652)">
<rect x="475.883" y="362.286" width="13.0579" height="41.3501" rx="6.52896" transform="rotate(-45 475.883 362.286)" fill="url(#paint21_linear_8_5652)"/>
</g>
<g filter="url(#filter15_d_8_5652)">
<path d="M1184.36 480.064C1173.56 484.511 1164.88 493.028 1160.21 503.706C1155.54 493.028 1146.85 484.512 1136.05 480.065C1146.85 475.619 1155.54 467.101 1160.21 456.423C1164.88 467.101 1173.56 475.618 1184.36 480.064Z" fill="url(#paint22_linear_8_5652)"/>
</g>
<g filter="url(#filter16_d_8_5652)">
<path d="M52.3125 480.069C41.514 484.517 32.8254 493.037 28.1562 503.719C23.4873 493.037 14.7981 484.517 4 480.069C14.7982 475.621 23.4874 467.101 28.1562 456.42C32.8253 467.101 41.514 475.622 52.3125 480.069Z" fill="url(#paint23_linear_8_5652)"/>
</g>
<g filter="url(#filter17_d_8_5652)">
<path d="M1017.37 451.675C1021.02 445.364 1030.13 445.364 1033.77 451.675L1053.05 485.076C1057.53 492.83 1049.7 501.991 1041.26 498.997C1033.93 496.397 1027.4 494.279 1025.57 494.279C1023.74 494.279 1017.21 496.397 1009.89 498.997C1001.45 501.99 993.613 492.829 998.09 485.076L1017.37 451.675Z" fill="url(#paint24_linear_8_5652)"/>
<path d="M1033.78 503.746C1030.13 510.058 1021.02 510.058 1017.38 503.746L998.095 470.346C993.618 462.592 1001.45 453.431 1009.89 456.425C1017.22 459.025 1023.75 461.143 1025.58 461.143C1027.41 461.143 1033.94 459.025 1041.26 456.425C1049.7 453.431 1057.54 462.593 1053.06 470.346L1033.78 503.746Z" fill="url(#paint25_linear_8_5652)"/>
</g>
<g filter="url(#filter18_d_8_5652)">
<path d="M159.862 451.675C163.506 445.364 172.616 445.364 176.26 451.675L195.544 485.076C200.021 492.83 192.185 501.991 183.747 498.997C176.419 496.397 169.889 494.279 168.061 494.279C166.233 494.279 159.703 496.397 152.376 498.997C143.938 501.99 136.102 492.829 140.579 485.076L159.862 451.675Z" fill="url(#paint26_linear_8_5652)"/>
<path d="M176.253 503.748C172.609 510.06 163.499 510.06 159.855 503.748L140.572 470.348C136.095 462.594 143.931 453.433 152.369 456.427C159.697 459.027 166.227 461.145 168.055 461.145C169.883 461.145 176.413 459.027 183.74 456.427C192.178 453.433 200.014 462.594 195.537 470.348L176.253 503.748Z" fill="url(#paint27_linear_8_5652)"/>
</g>
<g filter="url(#filter19_d_8_5652)">
<path d="M51.3307 437.474L75.511 437.474C98.4042 437.474 116.963 456.033 116.963 478.926L92.7826 478.926C69.8893 478.926 51.3307 460.368 51.3307 437.474Z" fill="url(#paint28_linear_8_5652)"/>
</g>
<g filter="url(#filter20_d_8_5652)">
<path d="M1135.42 522.678L1111.24 522.678C1088.34 522.678 1069.78 504.119 1069.78 481.226L1093.96 481.226C1116.86 481.226 1135.42 499.784 1135.42 522.678Z" fill="url(#paint29_linear_8_5652)"/>
</g>
<g filter="url(#filter21_d_8_5652)">
<path d="M51.3307 522.678L75.511 522.678C98.4042 522.678 116.963 504.119 116.963 481.226L92.7826 481.226C69.8893 481.226 51.3307 499.784 51.3307 522.678Z" fill="url(#paint30_linear_8_5652)"/>
</g>
<g filter="url(#filter22_d_8_5652)">
<circle cx="704.943" cy="387.089" r="6.09966" fill="url(#paint31_linear_8_5652)"/>
</g>
<g filter="url(#filter23_d_8_5652)">
<circle cx="469.001" cy="348.33" r="6.09966" fill="url(#paint32_linear_8_5652)"/>
</g>
<g filter="url(#filter24_d_8_5652)">
<circle cx="513.963" cy="571.284" r="6.09966" transform="rotate(-180 513.963 571.284)" fill="url(#paint33_linear_8_5652)"/>
</g>
<g filter="url(#filter25_d_8_5652)">
<circle cx="737.215" cy="607.595" r="6.09966" transform="rotate(-90 737.215 607.595)" fill="url(#paint34_linear_8_5652)"/>
</g>
<defs>
<filter id="filter0_d_8_5652" x="519.152" y="71.8423" width="186.269" height="313.604" filterUnits="userSpaceOnUse" color-interpolation-filters="sRGB">
<feFlood flood-opacity="0" result="BackgroundImageFix"/>
<feColorMatrix in="SourceAlpha" type="matrix" values="0 0 0 0 0 0 0 0 0 0 0 0 0 0 0 0 0 0 127 0" result="hardAlpha"/>
<feOffset dy="4"/>
<feGaussianBlur stdDeviation="2"/>
<feComposite in2="hardAlpha" operator="out"/>
<feColorMatrix type="matrix" values="0 0 0 0 0 0 0 0 0 0 0 0 0 0 0 0 0 0 0.15 0"/>
<feBlend mode="normal" in2="BackgroundImageFix" result="effect1_dropShadow_8_5652"/>
<feBlend mode="normal" in="SourceGraphic" in2="effect1_dropShadow_8_5652" result="shape"/>
</filter>
<filter id="filter1_d_8_5652" x="520.864" y="593.554" width="186.269" height="313.604" filterUnits="userSpaceOnUse" color-interpolation-filters="sRGB">
<feFlood flood-opacity="0" result="BackgroundImageFix"/>
<feColorMatrix in="SourceAlpha" type="matrix" values="0 0 0 0 0 0 0 0 0 0 0 0 0 0 0 0 0 0 127 0" result="hardAlpha"/>
<feOffset dy="4"/>
<feGaussianBlur stdDeviation="2"/>
<feComposite in2="hardAlpha" operator="out"/>
<feColorMatrix type="matrix" values="0 0 0 0 0 0 0 0 0 0 0 0 0 0 0 0 0 0 0.15 0"/>
<feBlend mode="normal" in2="BackgroundImageFix" result="effect1_dropShadow_8_5652"/>
<feBlend mode="normal" in="SourceGraphic" in2="effect1_dropShadow_8_5652" result="shape"/>
</filter>
<filter id="filter2_d_8_5652" x="226.651" y="381.449" width="318.706" height="189.245" filterUnits="userSpaceOnUse" color-interpolation-filters="sRGB">
<feFlood flood-opacity="0" result="BackgroundImageFix"/>
<feColorMatrix in="SourceAlpha" type="matrix" values="0 0 0 0 0 0 0 0 0 0 0 0 0 0 0 0 0 0 127 0" result="hardAlpha"/>
<feOffset dy="4"/>
<feGaussianBlur stdDeviation="2"/>
<feComposite in2="hardAlpha" operator="out"/>
<feColorMatrix type="matrix" values="0 0 0 0 0 0 0 0 0 0 0 0 0 0 0 0 0 0 0.15 0"/>
<feBlend mode="normal" in2="BackgroundImageFix" result="effect1_dropShadow_8_5652"/>
<feBlend mode="normal" in="SourceGraphic" in2="effect1_dropShadow_8_5652" result="shape"/>
</filter>
<filter id="filter3_d_8_5652" x="547.649" y="356.554" width="433.748" height="256.353" filterUnits="userSpaceOnUse" color-interpolation-filters="sRGB">
<feFlood flood-opacity="0" result="BackgroundImageFix"/>
<feColorMatrix in="SourceAlpha" type="matrix" values="0 0 0 0 0 0 0 0 0 0 0 0 0 0 0 0 0 0 127 0" result="hardAlpha"/>
<feOffset dy="4"/>
<feGaussianBlur stdDeviation="2"/>
<feComposite in2="hardAlpha" operator="out"/>
<feColorMatrix type="matrix" values="0 0 0 0 0 0 0 0 0 0 0 0 0 0 0 0 0 0 0.15 0"/>
<feBlend mode="normal" in2="BackgroundImageFix" result="effect1_dropShadow_8_5652"/>
<feBlend mode="normal" in="SourceGraphic" in2="effect1_dropShadow_8_5652" result="shape"/>
</filter>
<filter id="filter4_d_8_5652" x="584.728" y="160.987" width="346.703" height="346.703" filterUnits="userSpaceOnUse" color-interpolation-filters="sRGB">
<feFlood flood-opacity="0" result="BackgroundImageFix"/>
<feColorMatrix in="SourceAlpha" type="matrix" values="0 0 0 0 0 0 0 0 0 0 0 0 0 0 0 0 0 0 127 0" result="hardAlpha"/>
<feOffset dy="4"/>
<feGaussianBlur stdDeviation="2"/>
<feComposite in2="hardAlpha" operator="out"/>
<feColorMatrix type="matrix" values="0 0 0 0 0 0 0 0 0 0 0 0 0 0 0 0 0 0 0.15 0"/>
<feBlend mode="normal" in2="BackgroundImageFix" result="effect1_dropShadow_8_5652"/>
<feBlend mode="normal" in="SourceGraphic" in2="effect1_dropShadow_8_5652" result="shape"/>
</filter>
<filter id="filter5_d_8_5652" x="576.084" y="447.084" width="386.235" height="386.187" filterUnits="userSpaceOnUse" color-interpolation-filters="sRGB">
<feFlood flood-opacity="0" result="BackgroundImageFix"/>
<feColorMatrix in="SourceAlpha" type="matrix" values="0 0 0 0 0 0 0 0 0 0 0 0 0 0 0 0 0 0 127 0" result="hardAlpha"/>
<feOffset dy="4"/>
<feGaussianBlur stdDeviation="2"/>
<feComposite in2="hardAlpha" operator="out"/>
<feColorMatrix type="matrix" values="0 0 0 0 0 0 0 0 0 0 0 0 0 0 0 0 0 0 0.15 0"/>
<feBlend mode="normal" in2="BackgroundImageFix" result="effect1_dropShadow_8_5652"/>
<feBlend mode="normal" in="SourceGraphic" in2="effect1_dropShadow_8_5652" result="shape"/>
</filter>
<filter id="filter6_d_8_5652" x="227.527" y="414.892" width="451.424" height="451.424" filterUnits="userSpaceOnUse" color-interpolation-filters="sRGB">
<feFlood flood-opacity="0" result="BackgroundImageFix"/>
<feColorMatrix in="SourceAlpha" type="matrix" values="0 0 0 0 0 0 0 0 0 0 0 0 0 0 0 0 0 0 127 0" result="hardAlpha"/>
<feOffset dy="4"/>
<feGaussianBlur stdDeviation="2"/>
<feComposite in2="hardAlpha" operator="out"/>
<feColorMatrix type="matrix" values="0 0 0 0 0 0 0 0 0 0 0 0 0 0 0 0 0 0 0.15 0"/>
<feBlend mode="normal" in2="BackgroundImageFix" result="effect1_dropShadow_8_5652"/>
<feBlend mode="normal" in="SourceGraphic" in2="effect1_dropShadow_8_5652" result="shape"/>
</filter>
<filter id="filter7_d_8_5652" x="279.915" y="143.554" width="362.926" height="361.71" filterUnits="userSpaceOnUse" color-interpolation-filters="sRGB">
<feFlood flood-opacity="0" result="BackgroundImageFix"/>
<feColorMatrix in="SourceAlpha" type="matrix" values="0 0 0 0 0 0 0 0 0 0 0 0 0 0 0 0 0 0 127 0" result="hardAlpha"/>
<feOffset dy="4"/>
<feGaussianBlur stdDeviation="2"/>
<feComposite in2="hardAlpha" operator="out"/>
<feColorMatrix type="matrix" values="0 0 0 0 0 0 0 0 0 0 0 0 0 0 0 0 0 0 0.15 0"/>
<feBlend mode="normal" in2="BackgroundImageFix" result="effect1_dropShadow_8_5652"/>
<feBlend mode="normal" in="SourceGraphic" in2="effect1_dropShadow_8_5652" result="shape"/>
</filter>
<filter id="filter8_d_8_5652" x="485.654" y="364.65" width="238.855" height="238.815" filterUnits="userSpaceOnUse" color-interpolation-filters="sRGB">
<feFlood flood-opacity="0" result="BackgroundImageFix"/>
<feColorMatrix in="SourceAlpha" type="matrix" values="0 0 0 0 0 0 0 0 0 0 0 0 0 0 0 0 0 0 127 0" result="hardAlpha"/>
<feOffset dy="4"/>
<feGaussianBlur stdDeviation="2"/>
<feComposite in2="hardAlpha" operator="out"/>
<feColorMatrix type="matrix" values="0 0 0 0 0 0 0 0 0 0 0 0 0 0 0 0 0 0 0.15 0"/>
<feBlend mode="normal" in2="BackgroundImageFix" result="effect1_dropShadow_8_5652"/>
<feBlend mode="normal" in="SourceGraphic" in2="effect1_dropShadow_8_5652" result="shape"/>
</filter>
<filter id="filter9_d_8_5652" x="558.497" y="0" width="108.117" height="64.5903" filterUnits="userSpaceOnUse" color-interpolation-filters="sRGB">
<feFlood flood-opacity="0" result="BackgroundImageFix"/>
<feColorMatrix in="SourceAlpha" type="matrix" values="0 0 0 0 0 0 0 0 0 0 0 0 0 0 0 0 0 0 127 0" result="hardAlpha"/>
<feOffset dy="4"/>
<feGaussianBlur stdDeviation="2"/>
<feComposite in2="hardAlpha" operator="out"/>
<feColorMatrix type="matrix" values="0 0 0 0 0 0 0 0 0 0 0 0 0 0 0 0 0 0 0.15 0"/>
<feBlend mode="normal" in2="BackgroundImageFix" result="effect1_dropShadow_8_5652"/>
<feBlend mode="normal" in="SourceGraphic" in2="effect1_dropShadow_8_5652" result="shape"/>
</filter>
<filter id="filter10_d_8_5652" x="559.673" y="914.41" width="108.117" height="64.5903" filterUnits="userSpaceOnUse" color-interpolation-filters="sRGB">
<feFlood flood-opacity="0" result="BackgroundImageFix"/>
<feColorMatrix in="SourceAlpha" type="matrix" values="0 0 0 0 0 0 0 0 0 0 0 0 0 0 0 0 0 0 127 0" result="hardAlpha"/>
<feOffset dy="4"/>
<feGaussianBlur stdDeviation="2"/>
<feComposite in2="hardAlpha" operator="out"/>
<feColorMatrix type="matrix" values="0 0 0 0 0 0 0 0 0 0 0 0 0 0 0 0 0 0 0.15 0"/>
<feBlend mode="normal" in2="BackgroundImageFix" result="effect1_dropShadow_8_5652"/>
<feBlend mode="normal" in="SourceGraphic" in2="effect1_dropShadow_8_5652" result="shape"/>
</filter>
<filter id="filter11_d_8_5652" x="709.751" y="347.099" width="41.0635" height="41.0635" filterUnits="userSpaceOnUse" color-interpolation-filters="sRGB">
<feFlood flood-opacity="0" result="BackgroundImageFix"/>
<feColorMatrix in="SourceAlpha" type="matrix" values="0 0 0 0 0 0 0 0 0 0 0 0 0 0 0 0 0 0 127 0" result="hardAlpha"/>
<feOffset dy="4"/>
<feGaussianBlur stdDeviation="2"/>
<feComposite in2="hardAlpha" operator="out"/>
<feColorMatrix type="matrix" values="0 0 0 0 0 0 0 0 0 0 0 0 0 0 0 0 0 0 0.15 0"/>
<feBlend mode="normal" in2="BackgroundImageFix" result="effect1_dropShadow_8_5652"/>
<feBlend mode="normal" in="SourceGraphic" in2="effect1_dropShadow_8_5652" result="shape"/>
</filter>
<filter id="filter12_d_8_5652" x="468.1" y="578.213" width="41.0635" height="41.0635" filterUnits="userSpaceOnUse" color-interpolation-filters="sRGB">
<feFlood flood-opacity="0" result="BackgroundImageFix"/>
<feColorMatrix in="SourceAlpha" type="matrix" values="0 0 0 0 0 0 0 0 0 0 0 0 0 0 0 0 0 0 127 0" result="hardAlpha"/>
<feOffset dy="4"/>
<feGaussianBlur stdDeviation="2"/>
<feComposite in2="hardAlpha" operator="out"/>
<feColorMatrix type="matrix" values="0 0 0 0 0 0 0 0 0 0 0 0 0 0 0 0 0 0 0.15 0"/>
<feBlend mode="normal" in2="BackgroundImageFix" result="effect1_dropShadow_8_5652"/>
<feBlend mode="normal" in="SourceGraphic" in2="effect1_dropShadow_8_5652" result="shape"/>
</filter>
<filter id="filter13_d_8_5652" x="693.219" y="565.724" width="41.0635" height="41.0635" filterUnits="userSpaceOnUse" color-interpolation-filters="sRGB">
<feFlood flood-opacity="0" result="BackgroundImageFix"/>
<feColorMatrix in="SourceAlpha" type="matrix" values="0 0 0 0 0 0 0 0 0 0 0 0 0 0 0 0 0 0 127 0" result="hardAlpha"/>
<feOffset dy="4"/>
<feGaussianBlur stdDeviation="2"/>
<feComposite in2="hardAlpha" operator="out"/>
<feColorMatrix type="matrix" values="0 0 0 0 0 0 0 0 0 0 0 0 0 0 0 0 0 0 0.15 0"/>
<feBlend mode="normal" in2="BackgroundImageFix" result="effect1_dropShadow_8_5652"/>
<feBlend mode="normal" in="SourceGraphic" in2="effect1_dropShadow_8_5652" result="shape"/>
</filter>
<filter id="filter14_d_8_5652" x="474.587" y="355.757" width="41.0635" height="41.0635" filterUnits="userSpaceOnUse" color-interpolation-filters="sRGB">
<feFlood flood-opacity="0" result="BackgroundImageFix"/>
<feColorMatrix in="SourceAlpha" type="matrix" values="0 0 0 0 0 0 0 0 0 0 0 0 0 0 0 0 0 0 127 0" result="hardAlpha"/>
<feOffset dy="4"/>
<feGaussianBlur stdDeviation="2"/>
<feComposite in2="hardAlpha" operator="out"/>
<feColorMatrix type="matrix" values="0 0 0 0 0 0 0 0 0 0 0 0 0 0 0 0 0 0 0.15 0"/>
<feBlend mode="normal" in2="BackgroundImageFix" result="effect1_dropShadow_8_5652"/>
<feBlend mode="normal" in="SourceGraphic" in2="effect1_dropShadow_8_5652" result="shape"/>
</filter>
<filter id="filter15_d_8_5652" x="1132.05" y="456.423" width="56.3057" height="55.2832" filterUnits="userSpaceOnUse" color-interpolation-filters="sRGB">
<feFlood flood-opacity="0" result="BackgroundImageFix"/>
<feColorMatrix in="SourceAlpha" type="matrix" values="0 0 0 0 0 0 0 0 0 0 0 0 0 0 0 0 0 0 127 0" result="hardAlpha"/>
<feOffset dy="4"/>
<feGaussianBlur stdDeviation="2"/>
<feComposite in2="hardAlpha" operator="out"/>
<feColorMatrix type="matrix" values="0 0 0 0 0 0 0 0 0 0 0 0 0 0 0 0 0 0 0.15 0"/>
<feBlend mode="normal" in2="BackgroundImageFix" result="effect1_dropShadow_8_5652"/>
<feBlend mode="normal" in="SourceGraphic" in2="effect1_dropShadow_8_5652" result="shape"/>
</filter>
<filter id="filter16_d_8_5652" x="0" y="456.42" width="56.3125" height="55.2988" filterUnits="userSpaceOnUse" color-interpolation-filters="sRGB">
<feFlood flood-opacity="0" result="BackgroundImageFix"/>
<feColorMatrix in="SourceAlpha" type="matrix" values="0 0 0 0 0 0 0 0 0 0 0 0 0 0 0 0 0 0 127 0" result="hardAlpha"/>
<feOffset dy="4"/>
<feGaussianBlur stdDeviation="2"/>
<feComposite in2="hardAlpha" operator="out"/>
<feColorMatrix type="matrix" values="0 0 0 0 0 0 0 0 0 0 0 0 0 0 0 0 0 0 0.15 0"/>
<feBlend mode="normal" in2="BackgroundImageFix" result="effect1_dropShadow_8_5652"/>
<feBlend mode="normal" in="SourceGraphic" in2="effect1_dropShadow_8_5652" result="shape"/>
</filter>
<filter id="filter17_d_8_5652" x="992.787" y="446.942" width="65.575" height="69.5383" filterUnits="userSpaceOnUse" color-interpolation-filters="sRGB">
<feFlood flood-opacity="0" result="BackgroundImageFix"/>
<feColorMatrix in="SourceAlpha" type="matrix" values="0 0 0 0 0 0 0 0 0 0 0 0 0 0 0 0 0 0 127 0" result="hardAlpha"/>
<feOffset dy="4"/>
<feGaussianBlur stdDeviation="2"/>
<feComposite in2="hardAlpha" operator="out"/>
<feColorMatrix type="matrix" values="0 0 0 0 0 0 0 0 0 0 0 0 0 0 0 0 0 0 0.15 0"/>
<feBlend mode="normal" in2="BackgroundImageFix" result="effect1_dropShadow_8_5652"/>
<feBlend mode="normal" in="SourceGraphic" in2="effect1_dropShadow_8_5652" result="shape"/>
</filter>
<filter id="filter18_d_8_5652" x="135.27" y="446.942" width="65.5768" height="69.5403" filterUnits="userSpaceOnUse" color-interpolation-filters="sRGB">
<feFlood flood-opacity="0" result="BackgroundImageFix"/>
<feColorMatrix in="SourceAlpha" type="matrix" values="0 0 0 0 0 0 0 0 0 0 0 0 0 0 0 0 0 0 127 0" result="hardAlpha"/>
<feOffset dy="4"/>
<feGaussianBlur stdDeviation="2"/>
<feComposite in2="hardAlpha" operator="out"/>
<feColorMatrix type="matrix" values="0 0 0 0 0 0 0 0 0 0 0 0 0 0 0 0 0 0 0.15 0"/>
<feBlend mode="normal" in2="BackgroundImageFix" result="effect1_dropShadow_8_5652"/>
<feBlend mode="normal" in="SourceGraphic" in2="effect1_dropShadow_8_5652" result="shape"/>
</filter>
<filter id="filter19_d_8_5652" x="47.3307" y="437.474" width="73.6322" height="49.4519" filterUnits="userSpaceOnUse" color-interpolation-filters="sRGB">
<feFlood flood-opacity="0" result="BackgroundImageFix"/>
<feColorMatrix in="SourceAlpha" type="matrix" values="0 0 0 0 0 0 0 0 0 0 0 0 0 0 0 0 0 0 127 0" result="hardAlpha"/>
<feOffset dy="4"/>
<feGaussianBlur stdDeviation="2"/>
<feComposite in2="hardAlpha" operator="out"/>
<feColorMatrix type="matrix" values="0 0 0 0 0 0 0 0 0 0 0 0 0 0 0 0 0 0 0.15 0"/>
<feBlend mode="normal" in2="BackgroundImageFix" result="effect1_dropShadow_8_5652"/>
<feBlend mode="normal" in="SourceGraphic" in2="effect1_dropShadow_8_5652" result="shape"/>
</filter>
<filter id="filter20_d_8_5652" x="1065.78" y="481.226" width="73.6322" height="49.4519" filterUnits="userSpaceOnUse" color-interpolation-filters="sRGB">
<feFlood flood-opacity="0" result="BackgroundImageFix"/>
<feColorMatrix in="SourceAlpha" type="matrix" values="0 0 0 0 0 0 0 0 0 0 0 0 0 0 0 0 0 0 127 0" result="hardAlpha"/>
<feOffset dy="4"/>
<feGaussianBlur stdDeviation="2"/>
<feComposite in2="hardAlpha" operator="out"/>
<feColorMatrix type="matrix" values="0 0 0 0 0 0 0 0 0 0 0 0 0 0 0 0 0 0 0.15 0"/>
<feBlend mode="normal" in2="BackgroundImageFix" result="effect1_dropShadow_8_5652"/>
<feBlend mode="normal" in="SourceGraphic" in2="effect1_dropShadow_8_5652" result="shape"/>
</filter>
<filter id="filter21_d_8_5652" x="47.3307" y="481.226" width="73.6322" height="49.4519" filterUnits="userSpaceOnUse" color-interpolation-filters="sRGB">
<feFlood flood-opacity="0" result="BackgroundImageFix"/>
<feColorMatrix in="SourceAlpha" type="matrix" values="0 0 0 0 0 0 0 0 0 0 0 0 0 0 0 0 0 0 127 0" result="hardAlpha"/>
<feOffset dy="4"/>
<feGaussianBlur stdDeviation="2"/>
<feComposite in2="hardAlpha" operator="out"/>
<feColorMatrix type="matrix" values="0 0 0 0 0 0 0 0 0 0 0 0 0 0 0 0 0 0 0.15 0"/>
<feBlend mode="normal" in2="BackgroundImageFix" result="effect1_dropShadow_8_5652"/>
<feBlend mode="normal" in="SourceGraphic" in2="effect1_dropShadow_8_5652" result="shape"/>
</filter>
<filter id="filter22_d_8_5652" x="694.844" y="380.989" width="20.1993" height="20.1992" filterUnits="userSpaceOnUse" color-interpolation-filters="sRGB">
<feFlood flood-opacity="0" result="BackgroundImageFix"/>
<feColorMatrix in="SourceAlpha" type="matrix" values="0 0 0 0 0 0 0 0 0 0 0 0 0 0 0 0 0 0 127 0" result="hardAlpha"/>
<feOffset dy="4"/>
<feGaussianBlur stdDeviation="2"/>
<feComposite in2="hardAlpha" operator="out"/>
<feColorMatrix type="matrix" values="0 0 0 0 0 0 0 0 0 0 0 0 0 0 0 0 0 0 0.15 0"/>
<feBlend mode="normal" in2="BackgroundImageFix" result="effect1_dropShadow_8_5652"/>
<feBlend mode="normal" in="SourceGraphic" in2="effect1_dropShadow_8_5652" result="shape"/>
</filter>
<filter id="filter23_d_8_5652" x="458.901" y="342.23" width="20.1993" height="20.1992" filterUnits="userSpaceOnUse" color-interpolation-filters="sRGB">
<feFlood flood-opacity="0" result="BackgroundImageFix"/>
<feColorMatrix in="SourceAlpha" type="matrix" values="0 0 0 0 0 0 0 0 0 0 0 0 0 0 0 0 0 0 127 0" result="hardAlpha"/>
<feOffset dy="4"/>
<feGaussianBlur stdDeviation="2"/>
<feComposite in2="hardAlpha" operator="out"/>
<feColorMatrix type="matrix" values="0 0 0 0 0 0 0 0 0 0 0 0 0 0 0 0 0 0 0.15 0"/>
<feBlend mode="normal" in2="BackgroundImageFix" result="effect1_dropShadow_8_5652"/>
<feBlend mode="normal" in="SourceGraphic" in2="effect1_dropShadow_8_5652" result="shape"/>
</filter>
<filter id="filter24_d_8_5652" x="503.863" y="565.185" width="20.1993" height="20.1992" filterUnits="userSpaceOnUse" color-interpolation-filters="sRGB">
<feFlood flood-opacity="0" result="BackgroundImageFix"/>
<feColorMatrix in="SourceAlpha" type="matrix" values="0 0 0 0 0 0 0 0 0 0 0 0 0 0 0 0 0 0 127 0" result="hardAlpha"/>
<feOffset dy="4"/>
<feGaussianBlur stdDeviation="2"/>
<feComposite in2="hardAlpha" operator="out"/>
<feColorMatrix type="matrix" values="0 0 0 0 0 0 0 0 0 0 0 0 0 0 0 0 0 0 0.15 0"/>
<feBlend mode="normal" in2="BackgroundImageFix" result="effect1_dropShadow_8_5652"/>
<feBlend mode="normal" in="SourceGraphic" in2="effect1_dropShadow_8_5652" result="shape"/>
</filter>
<filter id="filter25_d_8_5652" x="727.115" y="601.495" width="20.1993" height="20.1992" filterUnits="userSpaceOnUse" color-interpolation-filters="sRGB">
<feFlood flood-opacity="0" result="BackgroundImageFix"/>
<feColorMatrix in="SourceAlpha" type="matrix" values="0 0 0 0 0 0 0 0 0 0 0 0 0 0 0 0 0 0 127 0" result="hardAlpha"/>
<feOffset dy="4"/>
<feGaussianBlur stdDeviation="2"/>
<feComposite in2="hardAlpha" operator="out"/>
<feColorMatrix type="matrix" values="0 0 0 0 0 0 0 0 0 0 0 0 0 0 0 0 0 0 0.15 0"/>
<feBlend mode="normal" in2="BackgroundImageFix" result="effect1_dropShadow_8_5652"/>
<feBlend mode="normal" in="SourceGraphic" in2="effect1_dropShadow_8_5652" result="shape"/>
</filter>
<linearGradient id="paint0_linear_8_5652" x1="612.286" y1="71.8423" x2="612.286" y2="377.446" gradientUnits="userSpaceOnUse">
<stop stop-color="#6A0D03"/>
<stop offset="0.5" stop-color="#871004"/>
<stop offset="0.75" stop-color="#A41405"/>
<stop offset="1" stop-color="#C21807"/>
</linearGradient>
<linearGradient id="paint1_linear_8_5652" x1="613.998" y1="899.158" x2="613.998" y2="593.554" gradientUnits="userSpaceOnUse">
<stop stop-color="#8C452C"/>
<stop offset="0.216346" stop-color="#B25838"/>
<stop offset="0.346154" stop-color="#D86B44"/>
<stop offset="0.826923" stop-color="#FF7F50"/>
</linearGradient>
<linearGradient id="paint2_linear_8_5652" x1="500.487" y1="467.83" x2="249.894" y2="467.83" gradientUnits="userSpaceOnUse">
<stop stop-color="#8C7701"/>
<stop offset="0.1875" stop-color="#B29802"/>
<stop offset="0.4375" stop-color="#D8B902"/>
<stop offset="0.663462" stop-color="#FFDA03"/>
<stop offset="1" stop-color="#FFC5EA"/>
</linearGradient>
<linearGradient id="paint3_linear_8_5652" x1="551.649" y1="480.731" x2="977.398" y2="480.731" gradientUnits="userSpaceOnUse">
<stop offset="0.408654" stop-color="#19198B"/>
<stop offset="0.634615" stop-color="#2020B1"/>
<stop offset="0.793269" stop-color="#2727D7"/>
<stop offset="1" stop-color="#2E2EFE"/>
</linearGradient>
<linearGradient id="paint4_linear_8_5652" x1="641.861" y1="454.548" x2="877.919" y2="218.489" gradientUnits="userSpaceOnUse">
<stop stop-color="#8C7701"/>
<stop offset="0.1875" stop-color="#B29802"/>
<stop offset="0.4375" stop-color="#D8B902"/>
<stop offset="0.663462" stop-color="#FFDA03"/>
<stop offset="1" stop-color="#FFC5EA"/>
</linearGradient>
<linearGradient id="paint5_linear_8_5652" x1="901.091" y1="768.09" x2="591.343" y2="458.343" gradientUnits="userSpaceOnUse">
<stop stop-color="#F31120"/>
<stop offset="0.5" stop-color="#92B83A"/>
<stop offset="0.75" stop-color="#F5F8F5"/>
<stop offset="1" stop-color="white"/>
</linearGradient>
<linearGradient id="paint6_linear_8_5652" x1="675.54" y1="422.529" x2="305.991" y2="792.078" gradientUnits="userSpaceOnUse">
<stop stop-color="#93021F"/>
<stop offset="0.115385" stop-color="#B20326"/>
<stop offset="0.1875" stop-color="#C2042A"/>
<stop offset="0.25" stop-color="#CA042B"/>
<stop offset="0.466346" stop-color="#FFA5C8"/>
<stop offset="0.600962" stop-color="#E3B8EE"/>
<stop offset="0.892934" stop-color="#E0DDB4"/>
</linearGradient>
<linearGradient id="paint7_linear_8_5652" x1="327.543" y1="185.966" x2="530.079" y2="413.304" gradientUnits="userSpaceOnUse">
<stop stop-color="#783D50"/>
<stop offset="0.331731" stop-color="#994E66"/>
<stop offset="0.605769" stop-color="#BA5F7C"/>
<stop offset="0.778846" stop-color="#DB7093"/>
<stop offset="1" stop-color="#F7D876"/>
</linearGradient>
<linearGradient id="paint8_linear_8_5652" x1="760.057" y1="527.817" x2="760.057" y2="774.971" gradientUnits="userSpaceOnUse">
<stop stop-color="#876459"/>
<stop offset="0.25" stop-color="#AC8072"/>
<stop offset="0.490385" stop-color="#D19B8A"/>
<stop offset="0.725962" stop-color="#F7B7A3"/>
<stop offset="1" stop-color="#DEF1C4"/>
</linearGradient>
<linearGradient id="paint9_linear_8_5652" x1="720.414" y1="567.465" x2="720.414" y2="814.619" gradientUnits="userSpaceOnUse">
<stop stop-color="#876459"/>
<stop offset="0.25" stop-color="#AC8072"/>
<stop offset="0.490385" stop-color="#D19B8A"/>
<stop offset="0.725962" stop-color="#F7B7A3"/>
<stop offset="1" stop-color="#DEF1C4"/>
</linearGradient>
<linearGradient id="paint10_linear_8_5652" x1="585.34" y1="607.062" x2="585.34" y2="854.216" gradientUnits="userSpaceOnUse">
<stop stop-color="#876459"/>
<stop offset="0.25" stop-color="#AC8072"/>
<stop offset="0.490385" stop-color="#D19B8A"/>
<stop offset="0.725962" stop-color="#F7B7A3"/>
<stop offset="1" stop-color="#DEF1C4"/>
</linearGradient>
<linearGradient id="paint11_linear_8_5652" x1="545.694" y1="567.412" x2="545.694" y2="814.565" gradientUnits="userSpaceOnUse">
<stop stop-color="#876459"/>
<stop offset="0.25" stop-color="#AC8072"/>
<stop offset="0.490385" stop-color="#D19B8A"/>
<stop offset="0.725962" stop-color="#F7B7A3"/>
<stop offset="1" stop-color="#DEF1C4"/>
</linearGradient>
<linearGradient id="paint12_linear_8_5652" x1="612.548" y1="0" x2="612.548" y2="41.3501" gradientUnits="userSpaceOnUse">
<stop stop-color="#6A0D03"/>
<stop offset="0.5" stop-color="#871004"/>
<stop offset="0.75" stop-color="#A41405"/>
<stop offset="1" stop-color="#C21807"/>
</linearGradient>
<linearGradient id="paint13_linear_8_5652" x1="610.376" y1="43.5325" x2="610.376" y2="84.8825" gradientUnits="userSpaceOnUse">
<stop stop-color="#6A0D03"/>
<stop offset="0.5" stop-color="#871004"/>
<stop offset="0.75" stop-color="#A41405"/>
<stop offset="1" stop-color="#C21807"/>
</linearGradient>
<linearGradient id="paint14_linear_8_5652" x1="669.143" y1="43.5325" x2="669.143" y2="84.8825" gradientUnits="userSpaceOnUse">
<stop stop-color="#6A0D03"/>
<stop offset="0.5" stop-color="#871004"/>
<stop offset="0.75" stop-color="#A41405"/>
<stop offset="1" stop-color="#C21807"/>
</linearGradient>
<linearGradient id="paint15_linear_8_5652" x1="626.796" y1="971" x2="626.796" y2="1012.35" gradientUnits="userSpaceOnUse">
<stop stop-color="#8C452C"/>
<stop offset="0.216346" stop-color="#B25838"/>
<stop offset="0.346154" stop-color="#D86B44"/>
<stop offset="0.826923" stop-color="#FF7F50"/>
</linearGradient>
<linearGradient id="paint16_linear_8_5652" x1="628.969" y1="927.468" x2="628.969" y2="968.818" gradientUnits="userSpaceOnUse">
<stop stop-color="#8C452C"/>
<stop offset="0.216346" stop-color="#B25838"/>
<stop offset="0.346154" stop-color="#D86B44"/>
<stop offset="0.826923" stop-color="#FF7F50"/>
</linearGradient>
<linearGradient id="paint17_linear_8_5652" x1="570.202" y1="927.468" x2="570.202" y2="968.818" gradientUnits="userSpaceOnUse">
<stop stop-color="#8C452C"/>
<stop offset="0.216346" stop-color="#B25838"/>
<stop offset="0.346154" stop-color="#D86B44"/>
<stop offset="0.826923" stop-color="#FF7F50"/>
</linearGradient>
<linearGradient id="paint18_linear_8_5652" x1="726.809" y1="382.867" x2="726.809" y2="424.217" gradientUnits="userSpaceOnUse">
<stop stop-color="#876459"/>
<stop offset="0.25" stop-color="#AC8072"/>
<stop offset="0.490385" stop-color="#D19B8A"/>
<stop offset="0.725962" stop-color="#F7B7A3"/>
<stop offset="1" stop-color="#DEF1C4"/>
</linearGradient>
<linearGradient id="paint19_linear_8_5652" x1="505.163" y1="575.509" x2="505.163" y2="616.859" gradientUnits="userSpaceOnUse">
<stop stop-color="#876459"/>
<stop offset="0.25" stop-color="#AC8072"/>
<stop offset="0.490385" stop-color="#D19B8A"/>
<stop offset="0.725962" stop-color="#F7B7A3"/>
<stop offset="1" stop-color="#DEF1C4"/>
</linearGradient>
<linearGradient id="paint20_linear_8_5652" x1="739.516" y1="592.259" x2="739.516" y2="633.609" gradientUnits="userSpaceOnUse">
<stop stop-color="#876459"/>
<stop offset="0.25" stop-color="#AC8072"/>
<stop offset="0.490385" stop-color="#D19B8A"/>
<stop offset="0.725962" stop-color="#F7B7A3"/>
<stop offset="1" stop-color="#DEF1C4"/>
</linearGradient>
<linearGradient id="paint21_linear_8_5652" x1="482.412" y1="362.286" x2="482.412" y2="403.636" gradientUnits="userSpaceOnUse">
<stop stop-color="#876459"/>
<stop offset="0.25" stop-color="#AC8072"/>
<stop offset="0.490385" stop-color="#D19B8A"/>
<stop offset="0.725962" stop-color="#F7B7A3"/>
<stop offset="1" stop-color="#DEF1C4"/>
</linearGradient>
<linearGradient id="paint22_linear_8_5652" x1="1184.36" y1="480.064" x2="1136.05" y2="480.064" gradientUnits="userSpaceOnUse">
<stop offset="0.408654" stop-color="#19198B"/>
<stop offset="0.634615" stop-color="#2020B1"/>
<stop offset="0.793269" stop-color="#2727D7"/>
<stop offset="1" stop-color="#2E2EFE"/>
</linearGradient>
<linearGradient id="paint23_linear_8_5652" x1="52.3125" y1="480.069" x2="4" y2="480.069" gradientUnits="userSpaceOnUse">
<stop stop-color="#8C7701"/>
<stop offset="0.1875" stop-color="#B29802"/>
<stop offset="0.4375" stop-color="#D8B902"/>
<stop offset="0.663462" stop-color="#FFDA03"/>
<stop offset="1" stop-color="#FFC5EA"/>
</linearGradient>
<linearGradient id="paint24_linear_8_5652" x1="1025.57" y1="437.474" x2="1025.57" y2="508.48" gradientUnits="userSpaceOnUse">
<stop offset="0.408654" stop-color="#19198B"/>
<stop offset="0.634615" stop-color="#2020B1"/>
<stop offset="0.793269" stop-color="#2727D7"/>
<stop offset="1" stop-color="#2E2EFE"/>
</linearGradient>
<linearGradient id="paint25_linear_8_5652" x1="1025.58" y1="517.948" x2="1025.58" y2="446.942" gradientUnits="userSpaceOnUse">
<stop offset="0.408654" stop-color="#19198B"/>
<stop offset="0.634615" stop-color="#2020B1"/>
<stop offset="0.793269" stop-color="#2727D7"/>
<stop offset="1" stop-color="#2E2EFE"/>
</linearGradient>
<linearGradient id="paint26_linear_8_5652" x1="168.061" y1="437.474" x2="168.061" y2="508.48" gradientUnits="userSpaceOnUse">
<stop stop-color="#8C7701"/>
<stop offset="0.1875" stop-color="#B29802"/>
<stop offset="0.4375" stop-color="#D8B902"/>
<stop offset="0.663462" stop-color="#FFDA03"/>
<stop offset="1" stop-color="#FFC5EA"/>
</linearGradient>
<linearGradient id="paint27_linear_8_5652" x1="168.054" y1="517.949" x2="168.054" y2="446.944" gradientUnits="userSpaceOnUse">
<stop stop-color="#8C7701"/>
<stop offset="0.1875" stop-color="#B29802"/>
<stop offset="0.4375" stop-color="#D8B902"/>
<stop offset="0.663462" stop-color="#FFDA03"/>
<stop offset="1" stop-color="#FFC5EA"/>
</linearGradient>
<linearGradient id="paint28_linear_8_5652" x1="84.1468" y1="437.474" x2="84.1468" y2="478.926" gradientUnits="userSpaceOnUse">
<stop stop-color="#8C7701"/>
<stop offset="0.1875" stop-color="#B29802"/>
<stop offset="0.4375" stop-color="#D8B902"/>
<stop offset="0.663462" stop-color="#FFDA03"/>
<stop offset="1" stop-color="#FFC5EA"/>
</linearGradient>
<linearGradient id="paint29_linear_8_5652" x1="1102.6" y1="522.678" x2="1102.6" y2="481.226" gradientUnits="userSpaceOnUse">
<stop offset="0.408654" stop-color="#19198B"/>
<stop offset="0.634615" stop-color="#2020B1"/>
<stop offset="0.793269" stop-color="#2727D7"/>
<stop offset="1" stop-color="#2E2EFE"/>
</linearGradient>
<linearGradient id="paint30_linear_8_5652" x1="84.1468" y1="522.678" x2="84.1468" y2="481.226" gradientUnits="userSpaceOnUse">
<stop stop-color="#8C7701"/>
<stop offset="0.1875" stop-color="#B29802"/>
<stop offset="0.4375" stop-color="#D8B902"/>
<stop offset="0.663462" stop-color="#FFDA03"/>
<stop offset="1" stop-color="#FFC5EA"/>
</linearGradient>
<linearGradient id="paint31_linear_8_5652" x1="704.943" y1="380.989" x2="704.943" y2="393.189" gradientUnits="userSpaceOnUse">
<stop stop-color="#876459"/>
<stop offset="0.25" stop-color="#AC8072"/>
<stop offset="0.490385" stop-color="#D19B8A"/>
<stop offset="0.725962" stop-color="#F7B7A3"/>
<stop offset="1" stop-color="#DEF1C4"/>
</linearGradient>
<linearGradient id="paint32_linear_8_5652" x1="469.001" y1="342.23" x2="469.001" y2="354.429" gradientUnits="userSpaceOnUse">
<stop stop-color="#876459"/>
<stop offset="0.25" stop-color="#AC8072"/>
<stop offset="0.490385" stop-color="#D19B8A"/>
<stop offset="0.725962" stop-color="#F7B7A3"/>
<stop offset="1" stop-color="#DEF1C4"/>
</linearGradient>
<linearGradient id="paint33_linear_8_5652" x1="513.963" y1="565.184" x2="513.963" y2="577.384" gradientUnits="userSpaceOnUse">
<stop stop-color="#876459"/>
<stop offset="0.25" stop-color="#AC8072"/>
<stop offset="0.490385" stop-color="#D19B8A"/>
<stop offset="0.725962" stop-color="#F7B7A3"/>
<stop offset="1" stop-color="#DEF1C4"/>
</linearGradient>
<linearGradient id="paint34_linear_8_5652" x1="737.215" y1="601.495" x2="737.215" y2="613.694" gradientUnits="userSpaceOnUse">
<stop stop-color="#876459"/>
<stop offset="0.25" stop-color="#AC8072"/>
<stop offset="0.490385" stop-color="#D19B8A"/>
<stop offset="0.725962" stop-color="#F7B7A3"/>
<stop offset="1" stop-color="#DEF1C4"/>
</linearGradient>
</defs>
</svg>
